  <svg
                xmlns="http://www.w3.org/2000/svg"
                xmlns:xlink="http://www.w3.org/1999/xlink"
                viewBox="0 0 24 24"
                width="24"
                height="24"
                preserveAspectRatio="xMidYMid meet"
                style="
                  width: 24px;
                  height: 24px;
                  transform: translate3d(0px, 0px, 0px);
                  content-visibility: visible;
                "
              >
                <defs>
                  <clipPath id="__lottie_element_18">
                    <rect width="24" height="24" x="0" y="0"></rect>
                  </clipPath>
                </defs>
                <g clip-path="url(#__lottie_element_18)">
                  <g
                    style="display: block"
                    transform="matrix(1,0,0,1,0,0)"
                    opacity="1"
                  >
                    <g
                      opacity="1"
                      transform="matrix(0.9999984502792358,0,0,0.9999984502792358,12,12)"
                    >
                      <path
                        stroke-linecap="butt"
                        stroke-linejoin="miter"
                        fill-opacity="0"
                        stroke-miterlimit="4"
                        stroke="rgb(3,3,3)"
                        stroke-opacity="1"
                        stroke-width="1.6"
                        d=" M0,9.800000190734863 C5.4120001792907715,9.800000190734863 9.800000190734863,5.4120001792907715 9.800000190734863,0 C9.800000190734863,-5.4120001792907715 5.4120001792907715,-9.800000190734863 0,-9.800000190734863 C-5.4120001792907715,-9.800000190734863 -9.800000190734863,-5.4120001792907715 -9.800000190734863,0 C-9.800000190734863,5.4120001792907715 -5.4120001792907715,9.800000190734863 0,9.800000190734863z"
                      ></path>
                    </g>
                    <g opacity="1" transform="matrix(1,0,0,1,12,12)">
                      <path
                        stroke-linecap="butt"
                        stroke-linejoin="miter"
                        fill-opacity="0"
                        stroke-miterlimit="4"
                        stroke="rgb(3,3,3)"
                        stroke-opacity="1"
                        stroke-width="1.6"
                        d=" M0,5.800000190734863 C3.203000068664551,5.800000190734863 5.800000190734863,3.203000068664551 5.800000190734863,0 C5.800000190734863,-3.203000068664551 3.203000068664551,-5.800000190734863 0,-5.800000190734863 C-3.203000068664551,-5.800000190734863 -5.800000190734863,-3.203000068664551 -5.800000190734863,0 C-5.800000190734863,3.203000068664551 -3.203000068664551,5.800000190734863 0,5.800000190734863z"
                      ></path>
                    </g>
                    <g opacity="1" transform="matrix(1,0,0,1,12,12)">
                      <path
                        stroke-linecap="butt"
                        stroke-linejoin="miter"
                        fill-opacity="0"
                        stroke-miterlimit="4"
                        stroke="rgb(3,3,3)"
                        stroke-opacity="1"
                        stroke-width="1.4"
                        d=" M0,1.7999999523162842 C0.9940000176429749,1.7999999523162842 1.7999999523162842,0.9940000176429749 1.7999999523162842,0 C1.7999999523162842,-0.9940000176429749 0.9940000176429749,-1.7999999523162842 0,-1.7999999523162842 C-0.9940000176429749,-1.7999999523162842 -1.7999999523162842,-0.9940000176429749 -1.7999999523162842,0 C-1.7999999523162842,0.9940000176429749 -0.9940000176429749,1.7999999523162842 0,1.7999999523162842z"
                      ></path>
                    </g>
                  </g>
                </g>
              </svg>
