<svg
  xmlns="http://www.w3.org/2000/svg"
  xmlns:xlink="http://www.w3.org/1999/xlink"
  viewBox="0 0 24 24"
  width="24"
  height="24"
  preserveAspectRatio="xMidYMid meet"
  style="
    width: 100%;
    height: 100%;
    transform: translate3d(0px, 0px, 0px);
    content-visibility: visible;
  "
>
  <defs>
    <clipPath id="__lottie_element_23">
      <rect width="24" height="24" x="0" y="0"></rect>
    </clipPath>
    <g id="__lottie_element_24">
      <g style="display: block" transform="matrix(1,0,0,1,12,12)" opacity="1">
        <g
          opacity="1"
          transform="matrix(1,0,0,1,0.14100000262260437,1.4839999675750732)"
        >
          <path
            fill="rgb(255,0,0)"
            fill-opacity="1"
            d=" M8.60949993133545,-5.953000068664551 C8.60949993133545,-5.953000068664551 8.60949993133545,5.953000068664551 8.60949993133545,5.953000068664551 C8.60949993133545,5.953000068664551 -8.60949993133545,5.953000068664551 -8.60949993133545,5.953000068664551 C-8.60949993133545,5.953000068664551 -8.60949993133545,-5.953000068664551 -8.60949993133545,-5.953000068664551 C-8.60949993133545,-5.953000068664551 8.60949993133545,-5.953000068664551 8.60949993133545,-5.953000068664551z"
          ></path>
        </g>
      </g>
    </g>
    <mask id="__lottie_element_24_1" mask-type="alpha">
      <use xlink:href="#__lottie_element_24"></use>
    </mask>
  </defs>
  <g clip-path="url(#__lottie_element_23)">
    <g style="display: block" transform="matrix(1,0,0,1,0,0)" opacity="1">
      <g opacity="1" transform="matrix(1,0,0,1,12,12.5)">
        <path
          stroke-linecap="round"
          stroke-linejoin="round"
          fill-opacity="0"
          stroke="rgb(3,3,3)"
          stroke-opacity="1"
          stroke-width="1.6"
          d=" M6.611000061035156,-8.5 C6.611000061035156,-8.5 -6.611000061035156,-8.5 -6.611000061035156,-8.5 C-7.6539998054504395,-8.5 -8.5,-7.6539998054504395 -8.5,-6.611000061035156 C-8.5,-6.611000061035156 -8.5,6.611000061035156 -8.5,6.611000061035156 C-8.5,7.6539998054504395 -7.6539998054504395,8.5 -6.611000061035156,8.5 C-6.611000061035156,8.5 6.611000061035156,8.5 6.611000061035156,8.5 C7.6539998054504395,8.5 8.5,7.6539998054504395 8.5,6.611000061035156 C8.5,6.611000061035156 8.5,-6.611000061035156 8.5,-6.611000061035156 C8.5,-7.6539998054504395 7.6539998054504395,-8.5 6.611000061035156,-8.5z"
        ></path>
      </g>
      <g opacity="1" transform="matrix(1,0,0,1,0,0)">
        <path
          stroke-linecap="round"
          stroke-linejoin="round"
          fill-opacity="0"
          stroke="rgb(3,3,3)"
          stroke-opacity="1"
          stroke-width="1.6"
          d=" M16,2 C16,2 16,6 16,6"
        ></path>
      </g>
      <g opacity="1" transform="matrix(1,0,0,1,0,0)">
        <path
          stroke-linecap="round"
          stroke-linejoin="round"
          fill-opacity="0"
          stroke="rgb(3,3,3)"
          stroke-opacity="1"
          stroke-width="1.6"
          d=" M8,2 C8,2 8,6 8,6"
        ></path>
      </g>
    </g>
    <g mask="url(#__lottie_element_24_1)" style="display: block">
      <g
        transform="matrix(1,0,0,1,-73.81199645996094,9.687999725341797)"
        opacity="1"
      >
        <g
          opacity="1"
          transform="matrix(1,0,0,1,85.80000305175781,3.8570001125335693)"
        >
          <path
            fill="rgb(3,3,3)"
            fill-opacity="1"
            d=" M0.6840000152587891,-2.256999969482422 C0.6840000152587891,-2.256999969482422 -1.715999960899353,2.5889999866485596 -1.715999960899353,2.5889999866485596 C-1.9119999408721924,2.984999895095825 -1.75,3.4649999141693115 -1.3539999723434448,3.6610000133514404 C-0.9580000042915344,3.8570001125335693 -0.4779999852180481,3.694000005722046 -0.28200000524520874,3.2980000972747803 C-0.28200000524520874,3.2980000972747803 2.6080000400543213,-2.5360000133514404 2.6080000400543213,-2.5360000133514404 C2.7279999256134033,-2.6760001182556152 2.799999952316284,-2.8580000400543213 2.799999952316284,-3.056999921798706 C2.799999952316284,-3.499000072479248 2.441999912261963,-3.8570001125335693 2,-3.8570001125335693 C2,-3.8570001125335693 1.9910000562667847,-3.8570001125335693 1.9910000562667847,-3.8570001125335693 C1.9789999723434448,-3.8570001125335693 1.968000054359436,-3.8570001125335693 1.9570000171661377,-3.8570001125335693 C1.9570000171661377,-3.8570001125335693 -2,-3.8570001125335693 -2,-3.8570001125335693 C-2.440999984741211,-3.8570001125335693 -2.799999952316284,-3.499000072479248 -2.799999952316284,-3.056999921798706 C-2.799999952316284,-2.615000009536743 -2.440999984741211,-2.256999969482422 -2,-2.256999969482422 C-2,-2.256999969482422 0.6840000152587891,-2.256999969482422 0.6840000152587891,-2.256999969482422z"
          ></path>
        </g>
        <g
          opacity="1"
          transform="matrix(1,0,0,1,2.066999912261963,3.805999994277954)"
        >
          <path
            fill="rgb(0,0,0)"
            fill-opacity="1"
            d=" M0.6579999923706055,3.680000066757202 C0.5879999995231628,3.680000066757202 0.5249999761581421,3.6549999713897705 0.4690000116825104,3.6059999465942383 C0.41999998688697815,3.556999921798706 0.39500001072883606,3.49399995803833 0.39500001072883606,3.4170000553131104 C0.39500001072883606,3.4170000553131104 0.39500001072883606,-1.8079999685287476 0.39500001072883606,-1.8079999685287476 C0.39500001072883606,-1.8079999685287476 -1.11899995803833,-0.640999972820282 -1.11899995803833,-0.640999972820282 C-1.1820000410079956,-0.5920000076293945 -1.2489999532699585,-0.574999988079071 -1.319000005722046,-0.5889999866485596 C-1.3819999694824219,-0.6029999852180481 -1.437999963760376,-0.640999972820282 -1.4869999885559082,-0.7039999961853027 C-1.4869999885559082,-0.7039999961853027 -2.013000011444092,-1.3880000114440918 -2.013000011444092,-1.3880000114440918 C-2.055000066757202,-1.4509999752044678 -2.072000026702881,-1.5169999599456787 -2.065000057220459,-1.5870000123977661 C-2.0510001182556152,-1.6579999923706055 -2.013000011444092,-1.7139999866485596 -1.9490000009536743,-1.75600004196167 C-1.9490000009536743,-1.75600004196167 0.4480000138282776,-3.6059999465942383 0.4480000138282776,-3.6059999465942383 C0.49000000953674316,-3.634000062942505 0.527999997138977,-3.6519999504089355 0.5630000233650208,-3.6589999198913574 C0.6050000190734863,-3.6730000972747803 0.6510000228881836,-3.680000066757202 0.699999988079071,-3.680000066757202 C0.699999988079071,-3.680000066757202 1.815000057220459,-3.680000066757202 1.815000057220459,-3.680000066757202 C1.8849999904632568,-3.680000066757202 1.944000005722046,-3.6549999713897705 1.9930000305175781,-3.6059999465942383 C2.0420000553131104,-3.556999921798706 2.066999912261963,-3.49399995803833 2.066999912261963,-3.4170000553131104 C2.066999912261963,-3.4170000553131104 2.066999912261963,3.4170000553131104 2.066999912261963,3.4170000553131104 C2.066999912261963,3.49399995803833 2.0420000553131104,3.556999921798706 1.9930000305175781,3.6059999465942383 C1.944000005722046,3.6549999713897705 1.8849999904632568,3.680000066757202 1.815000057220459,3.680000066757202 C1.815000057220459,3.680000066757202 0.6579999923706055,3.680000066757202 0.6579999923706055,3.680000066757202z"
          ></path>
        </g>
        <g
          opacity="1"
          transform="matrix(1,0,0,1,15.520000457763672,3.743000030517578)"
        >
          <path
            fill="rgb(0,0,0)"
            fill-opacity="1"
            d=" M-2.6019999980926514,3.743000030517578 C-2.678999900817871,3.743000030517578 -2.742000102996826,3.7179999351501465 -2.7909998893737793,3.6689999103546143 C-2.8399999141693115,3.619999885559082 -2.865000009536743,3.556999921798706 -2.865000009536743,3.4800000190734863 C-2.865000009536743,3.4800000190734863 -2.865000009536743,2.8489999771118164 -2.865000009536743,2.8489999771118164 C-2.865000009536743,2.7929999828338623 -2.8510000705718994,2.7200000286102295 -2.822999954223633,2.628999948501587 C-2.7880001068115234,2.5299999713897705 -2.7139999866485596,2.436000108718872 -2.6019999980926514,2.3450000286102295 C-2.6019999980926514,2.3450000286102295 -1.2139999866485596,0.9670000076293945 -1.2139999866485596,0.9670000076293945 C-0.7020000219345093,0.574999988079071 -0.289000004529953,0.24199999868869781 0.026000000536441803,-0.03200000151991844 C0.3490000069141388,-0.3050000071525574 0.5870000123977661,-0.5540000200271606 0.7409999966621399,-0.777999997138977 C0.8960000276565552,-1.0019999742507935 0.9729999899864197,-1.2200000286102295 0.9729999899864197,-1.4299999475479126 C0.9729999899864197,-1.7029999494552612 0.8960000276565552,-1.9279999732971191 0.7409999966621399,-2.1029999256134033 C0.593999981880188,-2.2850000858306885 0.35199999809265137,-2.375999927520752 0.01600000075995922,-2.375999927520752 C-0.20800000429153442,-2.375999927520752 -0.39800000190734863,-2.3269999027252197 -0.5519999861717224,-2.2290000915527344 C-0.6990000009536743,-2.138000011444092 -0.8149999976158142,-2.015000104904175 -0.8989999890327454,-1.8609999418258667 C-0.9829999804496765,-1.7070000171661377 -1.0390000343322754,-1.5379999876022339 -1.0670000314712524,-1.3559999465942383 C-1.0880000591278076,-1.2649999856948853 -1.1330000162124634,-1.2020000219345093 -1.2039999961853027,-1.1670000553131104 C-1.2669999599456787,-1.1319999694824219 -1.3329999446868896,-1.1139999628067017 -1.402999997138977,-1.1139999628067017 C-1.402999997138977,-1.1139999628067017 -2.5179998874664307,-1.1139999628067017 -2.5179998874664307,-1.1139999628067017 C-2.5880000591278076,-1.1139999628067017 -2.6440000534057617,-1.1349999904632568 -2.686000108718872,-1.1779999732971191 C-2.7279999256134033,-1.2269999980926514 -2.749000072479248,-1.2790000438690186 -2.749000072479248,-1.3350000381469727 C-2.742000102996826,-1.6579999923706055 -2.6760001182556152,-1.9630000591278076 -2.5490000247955322,-2.25 C-2.4159998893737793,-2.5369999408721924 -2.2300000190734863,-2.7929999828338623 -1.9919999837875366,-3.0169999599456787 C-1.753999948501587,-3.242000102996826 -1.4670000076293945,-3.4170000553131104 -1.1299999952316284,-3.5429999828338623 C-0.7940000295639038,-3.6760001182556152 -0.41200000047683716,-3.743000030517578 0.01600000075995922,-3.743000030517578 C0.6050000190734863,-3.743000030517578 1.0989999771118164,-3.6449999809265137 1.4980000257492065,-3.4489998817443848 C1.8980000019073486,-3.259000062942505 2.1989998817443848,-2.996000051498413 2.4030001163482666,-2.6600000858306885 C2.6059999465942383,-2.3239998817443848 2.7079999446868896,-1.934999942779541 2.7079999446868896,-1.4930000305175781 C2.7079999446868896,-1.156000018119812 2.638000011444092,-0.8450000286102295 2.496999979019165,-0.5569999814033508 C2.364000082015991,-0.27000001072883606 2.1679999828338623,0.007000000216066837 1.9079999923706055,0.27300000190734863 C1.6490000486373901,0.5329999923706055 1.340999960899353,0.8029999732971191 0.9829999804496765,1.0829999446868896 C0.9829999804496765,1.0829999446868896 -0.25699999928474426,2.3239998817443848 -0.25699999928474426,2.3239998817443848 C-0.25699999928474426,2.3239998817443848 2.6019999980926514,2.3239998817443848 2.6019999980926514,2.3239998817443848 C2.678999900817871,2.3239998817443848 2.743000030517578,2.3480000495910645 2.7920000553131104,2.3970000743865967 C2.8410000801086426,2.446000099182129 2.865000009536743,2.509000062942505 2.865000009536743,2.5859999656677246 C2.865000009536743,2.5859999656677246 2.865000009536743,3.4800000190734863 2.865000009536743,3.4800000190734863 C2.865000009536743,3.556999921798706 2.8410000801086426,3.619999885559082 2.7920000553131104,3.6689999103546143 C2.743000030517578,3.7179999351501465 2.678999900817871,3.743000030517578 2.6019999980926514,3.743000030517578 C2.6019999980926514,3.743000030517578 -2.6019999980926514,3.743000030517578 -2.6019999980926514,3.743000030517578z"
          ></path>
        </g>
        <g
          opacity="1"
          transform="matrix(1,0,0,1,29.575000762939453,3.8589999675750732)"
        >
          <path
            fill="rgb(0,0,0)"
            fill-opacity="1"
            d=" M-0.004999999888241291,3.7320001125335693 C-0.5239999890327454,3.7320001125335693 -0.968999981880188,3.6700000762939453 -1.340000033378601,3.5439999103546143 C-1.7120000123977661,3.4179999828338623 -2.0169999599456787,3.255000114440918 -2.255000114440918,3.059000015258789 C-2.493000030517578,2.86299991607666 -2.6730000972747803,2.6500000953674316 -2.7920000553131104,2.4189999103546143 C-2.9110000133514404,2.180000066757202 -2.9730000495910645,1.9520000219345093 -2.9800000190734863,1.7339999675750732 C-2.9800000190734863,1.6710000038146973 -2.9590001106262207,1.61899995803833 -2.9170000553131104,1.5770000219345093 C-2.875,1.534999966621399 -2.822999954223633,1.5140000581741333 -2.759999990463257,1.5140000581741333 C-2.759999990463257,1.5140000581741333 -1.6039999723434448,1.5140000581741333 -1.6039999723434448,1.5140000581741333 C-1.5269999504089355,1.5140000581741333 -1.4639999866485596,1.531000018119812 -1.4149999618530273,1.565999984741211 C-1.3660000562667847,1.593999981880188 -1.319000005722046,1.6480000019073486 -1.2769999504089355,1.725000023841858 C-1.2209999561309814,1.8860000371932983 -1.13100004196167,2.015000104904175 -1.0049999952316284,2.11299991607666 C-0.8790000081062317,2.2109999656677246 -0.7300000190734863,2.2820000648498535 -0.5619999766349792,2.3239998817443848 C-0.3869999945163727,2.3589999675750732 -0.20100000500679016,2.375999927520752 -0.004999999888241291,2.375999927520752 C0.3880000114440918,2.375999927520752 0.6949999928474426,2.2850000858306885 0.9190000295639038,2.1019999980926514 C1.1440000534057617,1.9199999570846558 1.2569999694824219,1.6640000343322754 1.2569999694824219,1.3350000381469727 C1.2569999694824219,0.9980000257492065 1.1519999504089355,0.7570000290870667 0.9409999847412109,0.609000027179718 C0.7310000061988831,0.4620000123977661 0.43299999833106995,0.3889999985694885 0.04800000041723251,0.3889999985694885 C0.04800000041723251,0.3889999985694885 -1.0770000219345093,0.3889999985694885 -1.0770000219345093,0.3889999985694885 C-1.1469999551773071,0.3889999985694885 -1.2079999446868896,0.36500000953674316 -1.2569999694824219,0.3160000145435333 C-1.305999994277954,0.2669999897480011 -1.3309999704360962,0.2070000022649765 -1.3309999704360962,0.13699999451637268 C-1.3309999704360962,0.13699999451637268 -1.3309999704360962,-0.3779999911785126 -1.3309999704360962,-0.3779999911785126 C-1.3309999704360962,-0.4620000123977661 -1.315999984741211,-0.5329999923706055 -1.2879999876022339,-0.5889999866485596 C-1.253000020980835,-0.6449999809265137 -1.218000054359436,-0.6859999895095825 -1.1820000410079956,-0.7139999866485596 C-1.1820000410079956,-0.7139999866485596 0.6259999871253967,-2.375999927520752 0.6259999871253967,-2.375999927520752 C0.6259999871253967,-2.375999927520752 -2.3399999141693115,-2.375999927520752 -2.3399999141693115,-2.375999927520752 C-2.4170000553131104,-2.375999927520752 -2.4800000190734863,-2.4000000953674316 -2.5290000438690186,-2.4489998817443848 C-2.578000068664551,-2.497999906539917 -2.6019999980926514,-2.558000087738037 -2.6019999980926514,-2.628000020980835 C-2.6019999980926514,-2.628000020980835 -2.6019999980926514,-3.4690001010894775 -2.6019999980926514,-3.4690001010894775 C-2.6019999980926514,-3.5460000038146973 -2.578000068664551,-3.6089999675750732 -2.5290000438690186,-3.6579999923706055 C-2.4800000190734863,-3.7070000171661377 -2.4170000553131104,-3.7320001125335693 -2.3399999141693115,-3.7320001125335693 C-2.3399999141693115,-3.7320001125335693 2.3289999961853027,-3.7320001125335693 2.3289999961853027,-3.7320001125335693 C2.4059998989105225,-3.7320001125335693 2.4690001010894775,-3.7070000171661377 2.5179998874664307,-3.6579999923706055 C2.568000078201294,-3.6089999675750732 2.5920000076293945,-3.5460000038146973 2.5920000076293945,-3.4690001010894775 C2.5920000076293945,-3.4690001010894775 2.5920000076293945,-2.7119998931884766 2.5920000076293945,-2.7119998931884766 C2.5920000076293945,-2.634999990463257 2.5769999027252197,-2.568000078201294 2.5490000247955322,-2.51200008392334 C2.5209999084472656,-2.4630000591278076 2.486999988555908,-2.4260001182556152 2.444999933242798,-2.3980000019073486 C2.444999933242798,-2.3980000019073486 0.7300000190734863,-0.7039999961853027 0.7300000190734863,-0.7039999961853027 C0.7300000190734863,-0.7039999961853027 0.8349999785423279,-0.6930000185966492 0.8349999785423279,-0.6930000185966492 C1.2489999532699585,-0.6510000228881836 1.6169999837875366,-0.5509999990463257 1.9390000104904175,-0.3889999985694885 C2.26200008392334,-0.2280000001192093 2.515000104904175,0.004000000189989805 2.697000026702881,0.3050000071525574 C2.885999917984009,0.6000000238418579 2.9800000190734863,0.9750000238418579 2.9800000190734863,1.4299999475479126 C2.9800000190734863,1.906999945640564 2.8510000705718994,2.316999912261963 2.5920000076293945,2.6610000133514404 C2.3329999446868896,3.003999948501587 1.9780000448226929,3.2699999809265137 1.5290000438690186,3.4600000381469727 C1.0809999704360962,3.6419999599456787 0.5699999928474426,3.7320001125335693 -0.004999999888241291,3.7320001125335693z"
          ></path>
        </g>
        <g
          opacity="1"
          transform="matrix(1,0,0,1,43.84299850463867,3.805999994277954)"
        >
          <path
            fill="rgb(0,0,0)"
            fill-opacity="1"
            d=" M0.6309999823570251,3.680000066757202 C0.5609999895095825,3.680000066757202 0.5009999871253967,3.6559998989105225 0.4519999921321869,3.6070001125335693 C0.40299999713897705,3.558000087738037 0.3790000081062317,3.494999885559082 0.3790000081062317,3.4170000553131104 C0.3790000081062317,3.4170000553131104 0.3790000081062317,2.1559998989105225 0.3790000081062317,2.1559998989105225 C0.3790000081062317,2.1559998989105225 -2.933000087738037,2.1559998989105225 -2.933000087738037,2.1559998989105225 C-3.003000020980835,2.1559998989105225 -3.062999963760376,2.130000114440918 -3.111999988555908,2.0810000896453857 C-3.1610000133514404,2.0320000648498535 -3.186000108718872,1.9700000286102295 -3.186000108718872,1.8930000066757202 C-3.186000108718872,1.8930000066757202 -3.186000108718872,1.0399999618530273 -3.186000108718872,1.0399999618530273 C-3.186000108718872,0.9909999966621399 -3.174999952316284,0.9390000104904175 -3.1540000438690186,0.8830000162124634 C-3.132999897003174,0.8270000219345093 -3.1050000190734863,0.7739999890327454 -3.069999933242798,0.7250000238418579 C-3.069999933242798,0.7250000238418579 0.010999999940395355,-3.500999927520752 0.010999999940395355,-3.500999927520752 C0.10199999809265137,-3.619999885559082 0.23100000619888306,-3.680000066757202 0.4000000059604645,-3.680000066757202 C0.4000000059604645,-3.680000066757202 1.7350000143051147,-3.680000066757202 1.7350000143051147,-3.680000066757202 C1.8049999475479126,-3.680000066757202 1.8650000095367432,-3.6559998989105225 1.9140000343322754,-3.6070001125335693 C1.9630000591278076,-3.558000087738037 1.9869999885559082,-3.49399995803833 1.9869999885559082,-3.4170000553131104 C1.9869999885559082,-3.4170000553131104 1.9869999885559082,0.7570000290870667 1.9869999885559082,0.7570000290870667 C1.9869999885559082,0.7570000290870667 2.9230000972747803,0.7570000290870667 2.9230000972747803,0.7570000290870667 C3.006999969482422,0.7570000290870667 3.069999933242798,0.7820000052452087 3.111999988555908,0.8309999704360962 C3.1610000133514404,0.8799999952316284 3.186000108718872,0.9399999976158142 3.186000108718872,1.0099999904632568 C3.186000108718872,1.0099999904632568 3.186000108718872,1.8930000066757202 3.186000108718872,1.8930000066757202 C3.186000108718872,1.9700000286102295 3.1610000133514404,2.0320000648498535 3.111999988555908,2.0810000896453857 C3.062999963760376,2.130000114440918 3.003000020980835,2.1559998989105225 2.933000087738037,2.1559998989105225 C2.933000087738037,2.1559998989105225 1.9869999885559082,2.1559998989105225 1.9869999885559082,2.1559998989105225 C1.9869999885559082,2.1559998989105225 1.9869999885559082,3.4170000553131104 1.9869999885559082,3.4170000553131104 C1.9869999885559082,3.494999885559082 1.9630000591278076,3.558000087738037 1.9140000343322754,3.6070001125335693 C1.8650000095367432,3.6559998989105225 1.8049999475479126,3.680000066757202 1.7350000143051147,3.680000066757202 C1.7350000143051147,3.680000066757202 0.6309999823570251,3.680000066757202 0.6309999823570251,3.680000066757202z M-1.555999994277954,0.8090000152587891 C-1.555999994277954,0.8090000152587891 0.4099999964237213,0.8090000152587891 0.4099999964237213,0.8090000152587891 C0.4099999964237213,0.8090000152587891 0.4099999964237213,-1.9559999704360962 0.4099999964237213,-1.9559999704360962 C0.4099999964237213,-1.9559999704360962 -1.555999994277954,0.8090000152587891 -1.555999994277954,0.8090000152587891z"
          ></path>
        </g>
        <g
          opacity="1"
          transform="matrix(1,0,0,1,58.0369987487793,3.864000082015991)"
        >
          <path
            fill="rgb(0,0,0)"
            fill-opacity="1"
            d=" M-0.020999999716877937,3.73799991607666 C-0.6520000100135803,3.73799991607666 -1.180999994277954,3.634999990463257 -1.6089999675750732,3.431999921798706 C-2.0360000133514404,3.2290000915527344 -2.361999988555908,2.9619998931884766 -2.5859999656677246,2.632999897003174 C-2.803999900817871,2.303999900817871 -2.9189999103546143,1.9539999961853027 -2.933000087738037,1.5829999446868896 C-2.933000087738037,1.5199999809265137 -2.9119999408721924,1.465999960899353 -2.869999885559082,1.4240000247955322 C-2.828000068664551,1.3819999694824219 -2.7760000228881836,1.3609999418258667 -2.7119998931884766,1.3609999418258667 C-2.7119998931884766,1.3609999418258667 -1.5240000486373901,1.3609999418258667 -1.5240000486373901,1.3609999418258667 C-1.440000057220459,1.3609999418258667 -1.3739999532699585,1.3819999694824219 -1.3250000476837158,1.4240000247955322 C-1.2690000534057617,1.4589999914169312 -1.2269999980926514,1.5089999437332153 -1.1990000009536743,1.5720000267028809 C-1.128000020980835,1.7610000371932983 -1.0369999408721924,1.9160000085830688 -0.925000011920929,2.0350000858306885 C-0.8059999942779541,2.1540000438690186 -0.6690000295639038,2.242000102996826 -0.5149999856948853,2.2980000972747803 C-0.3610000014305115,2.3540000915527344 -0.19599999487400055,2.381999969482422 -0.020999999716877937,2.381999969482422 C0.2029999941587448,2.381999969482422 0.4099999964237213,2.3359999656677246 0.5989999771118164,2.244999885559082 C0.7889999747276306,2.1470000743865967 0.9390000104904175,2.006999969482422 1.0509999990463257,1.8240000009536743 C1.1640000343322754,1.6419999599456787 1.2200000286102295,1.4179999828338623 1.2200000286102295,1.1519999504089355 C1.2200000286102295,0.9200000166893005 1.1670000553131104,0.7170000076293945 1.062000036239624,0.5419999957084656 C0.9570000171661377,0.367000013589859 0.8100000023841858,0.23000000417232513 0.6200000047683716,0.13199999928474426 C0.4309999942779541,0.03400000184774399 0.21699999272823334,-0.01600000075995922 -0.020999999716877937,-0.01600000075995922 C-0.2029999941587448,-0.01600000075995922 -0.3540000021457672,0.006000000052154064 -0.4729999899864197,0.04800000041723251 C-0.5849999785423279,0.09000000357627869 -0.6800000071525574,0.14100000262260437 -0.7570000290870667,0.20399999618530273 C-0.8339999914169312,0.25999999046325684 -0.9039999842643738,0.3140000104904175 -0.9670000076293945,0.3630000054836273 C-1.0299999713897705,0.4050000011920929 -1.100000023841858,0.4259999990463257 -1.1770000457763672,0.4259999990463257 C-1.1770000457763672,0.4259999990463257 -2.3450000286102295,0.4259999990463257 -2.3450000286102295,0.4259999990463257 C-2.4079999923706055,0.4259999990463257 -2.4639999866485596,0.4050000011920929 -2.513000011444092,0.3630000054836273 C-2.555000066757202,0.3140000104904175 -2.5759999752044678,0.257999986410141 -2.5759999752044678,0.19499999284744263 C-2.5759999752044678,0.19499999284744263 -2.2079999446868896,-3.431999921798706 -2.2079999446868896,-3.431999921798706 C-2.194000005722046,-3.5309998989105225 -2.1589999198913574,-3.6050000190734863 -2.1029999256134033,-3.6540000438690186 C-2.0399999618530273,-3.7100000381469727 -1.965999960899353,-3.73799991607666 -1.8819999694824219,-3.73799991607666 C-1.8819999694824219,-3.73799991607666 2.197999954223633,-3.73799991607666 2.197999954223633,-3.73799991607666 C2.2750000953674316,-3.73799991607666 2.3380000591278076,-3.7139999866485596 2.38700008392334,-3.6649999618530273 C2.436000108718872,-3.615999937057495 2.4600000381469727,-3.552000045776367 2.4600000381469727,-3.4749999046325684 C2.4600000381469727,-3.4749999046325684 2.4600000381469727,-2.632999897003174 2.4600000381469727,-2.632999897003174 C2.4600000381469727,-2.562999963760376 2.436000108718872,-2.505000114440918 2.38700008392334,-2.4560000896453857 C2.3380000591278076,-2.4070000648498535 2.2750000953674316,-2.381999969482422 2.197999954223633,-2.381999969482422 C2.197999954223633,-2.381999969482422 -0.8410000205039978,-2.381999969482422 -0.8410000205039978,-2.381999969482422 C-0.8410000205039978,-2.381999969482422 -0.9990000128746033,-0.8370000123977661 -0.9990000128746033,-0.8370000123977661 C-0.859000027179718,-0.9279999732971191 -0.6869999766349792,-1.0069999694824219 -0.48399999737739563,-1.0770000219345093 C-0.27300000190734863,-1.1540000438690186 0.017999999225139618,-1.1929999589920044 0.3889999985694885,-1.1929999589920044 C0.7260000109672546,-1.1929999589920044 1.0449999570846558,-1.1369999647140503 1.3459999561309814,-1.024999976158142 C1.6540000438690186,-0.9200000166893005 1.9279999732971191,-0.7630000114440918 2.1659998893737793,-0.5529999732971191 C2.4040000438690186,-0.34200000762939453 2.5899999141693115,-0.09000000357627869 2.7230000495910645,0.20399999618530273 C2.86299991607666,0.492000013589859 2.933000087738037,0.8209999799728394 2.933000087738037,1.1929999589920044 C2.933000087738037,1.6970000267028809 2.813999891281128,2.1429998874664307 2.5759999752044678,2.5290000438690186 C2.3380000591278076,2.9070000648498535 1.9980000257492065,3.2049999237060547 1.555999994277954,3.4230000972747803 C1.1139999628067017,3.632999897003174 0.5889999866485596,3.73799991607666 -0.020999999716877937,3.73799991607666z"
          ></path>
        </g>
        <g
          opacity="1"
          transform="matrix(1,0,0,1,72.11900329589844,3.8580000400543213)"
        >
          <path
            fill="rgb(0,0,0)"
            fill-opacity="1"
            d=" M0.026000000536441803,3.7320001125335693 C-0.5910000205039978,3.7320001125335693 -1.1269999742507935,3.619999885559082 -1.5829999446868896,3.3959999084472656 C-2.0309998989105225,3.171999931335449 -2.381999969482422,2.86299991607666 -2.634000062942505,2.4709999561309814 C-2.878999948501587,2.071000099182129 -3.002000093460083,1.6239999532699585 -3.002000093460083,1.1260000467300415 C-3.002000093460083,0.9160000085830688 -2.9700000286102295,0.7049999833106995 -2.9070000648498535,0.4950000047683716 C-2.8440001010894775,0.2849999964237213 -2.7669999599456787,0.08799999952316284 -2.6760001182556152,-0.09399999678134918 C-2.5850000381469727,-0.28299999237060547 -2.49399995803833,-0.45100000500679016 -2.4030001163482666,-0.5979999899864197 C-2.305000066757202,-0.7459999918937683 -2.2239999771118164,-0.8650000095367432 -2.1610000133514404,-0.9559999704360962 C-2.1610000133514404,-0.9559999704360962 -0.2680000066757202,-3.5209999084472656 -0.2680000066757202,-3.5209999084472656 C-0.2329999953508377,-3.555999994277954 -0.18799999356269836,-3.5989999771118164 -0.13199999928474426,-3.6480000019073486 C-0.07599999755620956,-3.7049999237060547 0.0020000000949949026,-3.7320001125335693 0.10000000149011612,-3.7320001125335693 C0.10000000149011612,-3.7320001125335693 1.2769999504089355,-3.7320001125335693 1.2769999504089355,-3.7320001125335693 C1.340000033378601,-3.7320001125335693 1.3930000066757202,-3.7070000171661377 1.434999942779541,-3.6579999923706055 C1.4769999980926514,-3.615999937057495 1.4980000257492065,-3.563999891281128 1.4980000257492065,-3.500999927520752 C1.4980000257492065,-3.4730000495910645 1.4950000047683716,-3.444999933242798 1.4869999885559082,-3.4170000553131104 C1.4800000190734863,-3.3959999084472656 1.4700000286102295,-3.378999948501587 1.4559999704360962,-3.365000009536743 C1.4559999704360962,-3.365000009536743 0.004999999888241291,-1.3760000467300415 0.004999999888241291,-1.3760000467300415 C0.061000000685453415,-1.3899999856948853 0.12399999797344208,-1.4010000228881836 0.1940000057220459,-1.4079999923706055 C0.2709999978542328,-1.4149999618530273 0.33799999952316284,-1.4190000295639038 0.39399999380111694,-1.4190000295639038 C0.7300000190734863,-1.4049999713897705 1.0529999732971191,-1.3339999914169312 1.3609999418258667,-1.2079999446868896 C1.6770000457763672,-1.0820000171661377 1.9570000171661377,-0.9079999923706055 2.2019999027252197,-0.6840000152587891 C2.447999954223633,-0.4659999907016754 2.640000104904175,-0.2070000022649765 2.7809998989105225,0.09399999678134918 C2.927999973297119,0.3959999978542328 3.002000093460083,0.7329999804496765 3.002000093460083,1.1050000190734863 C3.002000093460083,1.5740000009536743 2.878999948501587,2.007999897003174 2.632999897003174,2.4079999923706055 C2.3949999809265137,2.806999921798706 2.052000045776367,3.130000114440918 1.6030000448226929,3.375999927520752 C1.1610000133514404,3.614000082015991 0.6359999775886536,3.7320001125335693 0.026000000536441803,3.7320001125335693z M0.004999999888241291,2.375999927520752 C0.23600000143051147,2.375999927520752 0.44999998807907104,2.3310000896453857 0.6460000276565552,2.240000009536743 C0.8429999947547913,2.1419999599456787 1,1.9980000257492065 1.1200000047683716,1.809000015258789 C1.2389999628067017,1.6200000047683716 1.2979999780654907,1.3919999599456787 1.2979999780654907,1.1260000467300415 C1.2979999780654907,0.8519999980926514 1.2389999628067017,0.6240000128746033 1.1200000047683716,0.4410000145435333 C1,0.25200000405311584 0.8429999947547913,0.1120000034570694 0.6460000276565552,0.020999999716877937 C0.44999998807907104,-0.07699999958276749 0.23600000143051147,-0.12600000202655792 0.004999999888241291,-0.12600000202655792 C-0.22599999606609344,-0.12600000202655792 -0.4399999976158142,-0.07699999958276749 -0.6359999775886536,0.020999999716877937 C-0.8330000042915344,0.1120000034570694 -0.9900000095367432,0.25200000405311584 -1.1100000143051147,0.4410000145435333 C-1.2289999723434448,0.6240000128746033 -1.2879999876022339,0.8519999980926514 -1.2879999876022339,1.1260000467300415 C-1.2879999876022339,1.3919999599456787 -1.2289999723434448,1.6200000047683716 -1.1100000143051147,1.809000015258789 C-0.9829999804496765,1.9980000257492065 -0.8259999752044678,2.1419999599456787 -0.6359999775886536,2.240000009536743 C-0.4399999976158142,2.3310000896453857 -0.22599999606609344,2.375999927520752 0.004999999888241291,2.375999927520752z"
          ></path>
        </g>
      </g>
    </g>
  </g>
</svg>
